<svg aria-hidden="true" style="position: absolute; width: 0; height: 0; overflow: hidden;" version="1.1" xmlns="http://www.w3.org/2000/svg" xmlns:xlink="http://www.w3.org/1999/xlink">
<defs>
<symbol id="icon-play" viewBox="0 0 32 32">
<path d="M28.587 14.293l-20.64-10.32c-0.278-0.129-0.585-0.186-0.891-0.167s-0.603 0.115-0.862 0.279c-0.26 0.163-0.474 0.389-0.625 0.657s-0.231 0.569-0.235 0.875v20.631c-0.003 0.315 0.076 0.625 0.229 0.901s0.373 0.507 0.641 0.673 0.574 0.259 0.889 0.271c0.315 0.012 0.627-0.057 0.908-0.2l20.587-10.32c0.305-0.153 0.561-0.388 0.74-0.678s0.274-0.625 0.274-0.966-0.095-0.676-0.274-0.966c-0.179-0.29-0.436-0.525-0.74-0.678v0.009z"></path>
</symbol>
</defs>
</svg>
